<?xml version="1.0" standalone="no"?>
<!DOCTYPE svg PUBLIC "-//W3C//DTD SVG 20010904//EN"
 "http://www.w3.org/TR/2001/REC-SVG-20010904/DTD/svg10.dtd">
<svg version="1.0" xmlns="http://www.w3.org/2000/svg"
 width="512.000000pt" height="512.000000pt" viewBox="0 0 512.000000 512.000000"
 preserveAspectRatio="xMidYMid meet">
<metadata>
Created by potrace 1.14, written by Peter Selinger 2001-2017
</metadata>
<g transform="translate(0.000000,512.000000) scale(0.100000,-0.100000)"
fill="#000000" stroke="none">
<path d="M1105 4650 c-126 -82 -240 -155 -253 -162 -94 -53 -675 -436 -683
-449 -10 -19 -12 -510 -3 -547 10 -37 53 -52 149 -52 l85 0 0 -120 0 -120 160
0 160 0 0 120 0 120 280 0 280 0 0 -1440 0 -1440 -120 0 -120 0 0 -135 0 -135
-440 0 -440 0 0 -80 0 -80 2400 0 2400 0 0 80 0 80 -160 0 -160 0 0 935 0 935
-160 0 -160 0 0 -160 0 -160 -280 0 -280 0 0 160 0 160 -160 0 -160 0 0 -160
0 -160 -280 0 -280 0 0 160 0 160 -160 0 -160 0 0 -935 0 -935 -200 0 -200 0
0 135 0 135 -120 0 -120 0 0 1440 0 1440 800 0 800 0 0 -63 0 -63 -230 -229
c-126 -127 -236 -242 -242 -257 -12 -27 -16 -28 -90 -28 l-78 0 0 -160 0 -160
720 0 720 0 0 160 0 160 -80 0 c-75 0 -80 1 -85 23 -4 13 -112 129 -241 258
l-234 234 0 62 0 63 455 0 456 0 24 25 25 24 0 268 c0 297 -1 303 -63 321 -17
6 -122 34 -232 62 -177 46 -671 177 -980 259 -60 17 -173 46 -250 67 -189 49
-309 81 -375 99 -30 8 -183 49 -340 90 -157 41 -344 91 -415 110 l-131 35
-259 0 -260 0 -230 -150z m666 -30 c1 -11 2 -23 3 -27 1 -5 6 -39 10 -77 4
-38 9 -79 11 -90 13 -78 15 -99 7 -91 -185 214 -229 264 -246 283 l-19 22 116
0 c110 0 117 -1 118 -20z m359 -59 c80 -21 242 -64 360 -96 251 -67 320 -85
495 -131 152 -40 393 -104 415 -109 8 -3 49 -13 90 -25 41 -11 86 -22 100 -25
14 -3 97 -25 185 -50 l160 -44 -966 0 -966 -1 -7 42 c-4 23 -9 63 -12 88 -3
25 -7 61 -10 80 -2 19 -7 55 -10 80 -3 25 -7 61 -9 80 -6 44 -17 133 -17 140
-1 18 5 22 25 16 12 -4 87 -24 167 -45z m-874 -38 c-3 -21 -8 -56 -11 -78 -2
-22 -7 -58 -9 -80 -3 -22 -8 -62 -11 -90 -3 -27 -8 -61 -10 -75 -2 -14 -7 -45
-10 -70 -4 -25 -8 -46 -9 -48 -2 -1 -154 -1 -339 0 l-336 3 367 237 c202 130
368 237 370 237 2 1 1 -16 -2 -36z m299 -147 c33 -39 67 -77 75 -86 8 -8 37
-41 64 -73 l48 -57 -186 0 -187 0 5 33 c12 80 38 294 38 316 0 23 3 22 42 -20
22 -24 68 -75 101 -113z m-905 -576 c-44 -65 -84 -121 -88 -124 -4 -2 -44 52
-89 120 l-82 124 170 0 169 0 -80 -120z m470 53 c0 -36 -1 -64 -3 -62 -2 2
-22 32 -45 67 l-42 62 45 0 45 0 0 -67z m1009 5 c-23 -35 -44 -65 -46 -67 -1
-2 -3 26 -3 62 l0 67 45 0 46 0 -42 -62z m671 56 c0 -9 -149 -232 -158 -237
-4 -2 -44 51 -89 119 l-83 124 165 0 c91 0 165 -3 165 -6z m640 0 c0 -9 -149
-232 -158 -237 -4 -3 -44 51 -89 119 l-82 124 165 0 c90 0 164 -3 164 -6z
m568 -119 c-46 -68 -85 -125 -88 -125 -3 0 -42 57 -87 125 l-81 125 169 0 169
0 -82 -125z m472 58 c0 -36 -1 -64 -3 -62 -2 2 -22 32 -45 67 l-42 62 45 0 45
0 0 -67z m-3511 -130 l81 -123 -170 0 -170 0 52 78 c70 104 120 174 123 170 1
-2 39 -58 84 -125z m1358 -121 c-88 -1 -162 0 -165 2 -4 5 116 192 146 229 14
16 22 8 97 -105 l81 -123 -159 -3z m720 123 l82 -125 -169 0 -170 0 82 125
c46 68 85 125 88 125 3 0 42 -57 87 -125z m640 0 l82 -125 -169 0 -170 0 82
125 c46 68 85 125 88 125 3 0 42 -57 87 -125z m641 -2 l81 -123 -169 0 -169 0
71 108 c70 105 99 145 103 140 1 -2 39 -58 83 -125z m-3951 -75 l33 -48 -45 0
-45 0 0 68 c1 55 3 64 12 47 6 -11 27 -41 45 -67z m1383 -328 c0 -22 -3 -40
-6 -40 -9 0 -114 70 -114 76 0 2 27 4 60 4 l60 0 0 -40z m-71 -200 c0 -3 -56
-42 -124 -87 l-125 -82 0 169 0 170 125 -82 c68 -46 124 -85 124 -88z m2056
-100 l140 -140 -284 0 c-157 0 -281 3 -277 8 36 39 272 272 276 272 3 0 68
-63 145 -140z m-1985 -220 c0 -88 -3 -160 -6 -160 -6 0 -87 52 -182 118 l-62
44 117 78 c65 44 121 79 126 79 4 1 7 -71 7 -159z m-71 -320 c0 -3 -56 -42
-124 -88 l-125 -82 0 170 0 169 124 -82 c69 -45 125 -84 125 -87z m71 -320 c0
-88 -2 -160 -5 -160 -5 0 -91 56 -183 119 l-64 43 119 78 c65 44 121 79 126
80 4 0 7 -72 7 -160z m-77 -322 c-5 -10 -211 -148 -229 -155 -12 -4 -14 25
-14 161 l0 165 124 -82 c68 -45 122 -85 119 -89z m77 -319 c0 -125 -3 -160
-12 -156 -7 3 -64 39 -125 80 -85 56 -109 77 -100 85 26 22 222 151 230 152 4
0 7 -72 7 -161z m1680 -319 l0 -320 -280 0 -280 0 0 320 0 320 280 0 280 0 0
-320z m880 0 l0 -320 -280 0 -280 0 0 320 0 320 280 0 280 0 0 -320z m-2636
-2 c-3 -4 -58 -43 -124 -87 l-120 -80 0 169 0 170 124 -83 c68 -45 122 -85
120 -89z m76 -318 c0 -88 -3 -160 -6 -160 -8 0 -162 101 -211 138 l-33 24 118
79 c64 43 120 78 125 78 4 1 7 -71 7 -159z m-205 -228 c17 -9 8 -11 -47 -12
l-68 0 0 45 0 45 48 -33 c26 -18 56 -39 67 -45z m1885 -227 l0 -135 -280 0
-280 0 0 135 0 135 280 0 280 0 0 -135z m880 0 l0 -135 -280 0 -280 0 0 135 0
135 280 0 280 0 0 -135z"/>
</g>
</svg>
