<?xml version="1.0" standalone="no"?>
<!DOCTYPE svg PUBLIC "-//W3C//DTD SVG 20010904//EN"
 "http://www.w3.org/TR/2001/REC-SVG-20010904/DTD/svg10.dtd">
<svg version="1.0" xmlns="http://www.w3.org/2000/svg"
 width="500.000000pt" height="500.000000pt" viewBox="0 0 500.000000 500.000000"
 preserveAspectRatio="xMidYMid meet">
<metadata>
Created by potrace 1.14, written by Peter Selinger 2001-2017
</metadata>
<g transform="translate(0.000000,500.000000) scale(0.100000,-0.100000)"
fill="#000000" stroke="none">
<path d="M2388 3654 c-2 -1 -57 -5 -123 -8 -66 -4 -136 -8 -155 -10 -19 -3
-62 -7 -95 -10 -33 -3 -87 -10 -120 -16 -33 -6 -78 -13 -100 -16 -42 -5 -74
-10 -115 -19 -14 -3 -40 -8 -59 -11 -19 -3 -45 -10 -58 -15 -13 -5 -23 -6 -23
-3 0 2 -8 0 -17 -5 -10 -5 -34 -12 -53 -15 -19 -3 -62 -15 -95 -27 -33 -11
-67 -22 -75 -23 -8 -1 -28 -8 -45 -14 -16 -7 -43 -17 -60 -23 -227 -83 -409
-212 -487 -344 -80 -136 -102 -194 -101 -262 0 -35 6 -76 13 -91 7 -15 19 -41
28 -57 8 -17 31 -49 51 -71 45 -50 161 -144 177 -144 7 0 14 -4 16 -9 3 -9
189 -102 198 -99 3 1 16 -5 30 -12 14 -8 30 -15 35 -16 6 -2 44 -15 85 -29 41
-15 82 -28 90 -30 8 -2 15 -4 15 -5 0 -2 25 -9 60 -16 17 -3 37 -8 45 -11 8
-4 17 -7 20 -8 8 -2 113 -25 138 -30 13 -2 31 -6 40 -9 9 -3 35 -7 57 -10 22
-4 51 -8 65 -11 14 -2 41 -7 60 -9 19 -3 44 -8 56 -10 11 -2 54 -7 95 -11 41
-3 86 -8 102 -11 143 -24 783 -23 977 1 42 5 145 17 180 20 63 6 304 53 413
81 127 32 289 83 302 95 5 5 15 9 23 9 19 0 195 89 266 135 104 66 175 148
236 270 14 28 27 52 30 55 16 14 35 102 33 149 -2 53 -36 139 -72 184 -66 82
-177 163 -317 232 -64 31 -122 58 -128 59 -6 1 -38 12 -71 25 -33 13 -67 24
-75 26 -8 2 -35 10 -60 18 -39 13 -81 25 -115 32 -5 2 -30 8 -55 15 -25 7 -54
14 -65 15 -11 2 -31 6 -45 9 -37 9 -200 37 -240 42 -19 2 -51 6 -70 9 -19 3
-51 7 -70 10 -19 3 -64 8 -100 10 -36 3 -92 8 -125 10 -64 6 -543 14 -547 9z"/>
<path d="M237 1939 c-57 -35 -105 -91 -103 -120 1 -21 6 -24 41 -24 22 0 47 3
55 7 8 3 30 12 48 18 17 7 32 16 32 20 0 4 6 10 14 13 12 5 12 2 2 -19 -16
-30 -11 -403 6 -419 21 -21 108 46 139 106 16 33 19 56 17 156 l-3 118 30 0
c66 1 123 26 170 76 28 30 45 57 45 73 l0 24 -143 -2 c-140 -1 -143 -2 -180
-30 -20 -16 -37 -32 -37 -37 0 -5 -5 -9 -11 -9 -5 0 -3 10 5 22 9 12 16 30 16
40 0 28 -90 20 -143 -13z"/>
<path d="M928 1960 c-32 -9 -92 -62 -119 -107 -18 -29 -20 -45 -16 -165 4
-141 13 -173 57 -219 52 -54 73 -58 305 -58 117 -1 221 2 229 5 10 4 16 18 16
38 0 39 -38 82 -97 108 -39 17 -50 38 -20 38 25 0 95 87 105 130 6 28 2 91 -7
108 -5 9 -10 22 -11 27 -5 21 -47 64 -80 81 -29 16 -60 19 -185 20 -82 0 -162
-2 -177 -6z m294 -183 c13 -23 12 -24 -42 -31 -88 -13 -173 -75 -185 -137 -3
-12 -7 -24 -10 -27 -13 -13 -17 14 -20 111 l-3 103 125 0 c110 -1 126 -3 135
-19z"/>
<path d="M1453 1958 c-14 -19 -24 -48 -15 -48 4 0 8 -82 9 -183 2 -177 9 -218
38 -239 5 -4 6 -8 2 -8 -13 0 45 -45 76 -58 20 -8 97 -12 252 -12 251 1 257 3
231 62 -22 49 -39 66 -82 84 -45 20 -70 22 -222 24 -72 1 -115 6 -119 13 -4 7
-8 44 -9 82 -4 180 -8 193 -62 253 -32 36 -82 51 -99 30z"/>
<path d="M2231 1962 c-35 -12 -108 -86 -125 -127 -18 -43 -10 -269 11 -313 19
-40 61 -81 101 -98 46 -19 466 -19 482 1 29 35 -36 126 -99 140 -32 7 -52 25
-28 25 26 0 105 84 113 121 19 83 10 139 -32 189 -50 58 -73 64 -249 65 -89 1
-167 -1 -174 -3z m292 -171 c12 -2 8 -41 -5 -42 -104 -5 -194 -62 -219 -137
-17 -52 -27 -27 -31 80 -2 81 0 98 12 100 14 3 226 2 243 -1z"/>
<path d="M2879 1956 c-38 -17 -97 -78 -113 -116 -10 -26 -13 -67 -10 -157 3
-128 14 -168 56 -214 48 -53 69 -57 310 -58 214 -1 224 -1 236 19 27 44 -46
128 -130 146 -13 3 -83 6 -156 6 -88 1 -135 5 -138 12 -2 6 -5 54 -7 106 l-2
95 125 1 c126 2 144 4 190 22 54 21 110 91 110 136 0 16 -434 18 -471 2z"/>
<path d="M3524 1952 c-34 -17 -103 -88 -114 -116 -4 -11 -6 -79 -5 -152 3
-140 11 -169 61 -219 47 -47 84 -55 247 -54 170 0 181 4 244 72 50 54 55 76
50 227 -5 143 -28 195 -107 236 -47 25 -330 30 -376 6z m141 -152 c15 6 27 6
30 0 3 -6 15 -6 30 0 15 6 27 6 30 -1 4 -5 13 -6 23 0 10 5 25 5 40 -2 19 -9
23 -17 20 -44 -2 -18 -2 -33 2 -33 3 0 5 -32 5 -70 l0 -70 -30 -1 c-35 -1
-214 -1 -232 0 -7 1 -12 28 -13 79 0 42 -2 91 -3 107 -2 27 1 30 33 35 19 3
36 2 38 -2 2 -4 14 -3 27 2z"/>
<path d="M4194 1957 c-18 -7 -78 -80 -80 -95 0 -4 -4 -14 -8 -22 -3 -8 -4 -87
-2 -175 2 -88 4 -182 5 -208 1 -45 2 -48 24 -42 69 21 105 124 97 279 -3 53
-2 97 3 97 33 6 135 4 148 -3 11 -5 17 -20 17 -45 0 -104 12 -212 27 -251 18
-45 56 -82 85 -82 28 0 67 37 91 87 20 42 23 63 24 173 l0 125 79 0 c45 0 80
-4 82 -10 2 -5 6 -59 8 -120 4 -117 24 -202 53 -227 27 -23 60 -31 70 -16 9
15 11 368 2 368 -3 0 -5 11 -4 24 4 33 -30 104 -62 130 -24 18 -41 21 -143 22
l-115 1 -41 -42 -41 -42 -37 42 -37 42 -113 -1 c-63 0 -122 -4 -132 -9z"/>
</g>
</svg>
